<?xml version="1.0" encoding="UTF-8"?>
<svg xmlns="http://www.w3.org/2000/svg" viewBox="0 0 1024 1024" width="1024" height="1024">
  
  <g transform="translate(236.76,700)" fill="#f5f1ea"><path d="M1064 483 921 461 1219 1267Q1247 1343 1284.0 1371.5Q1321 1400 1386 1400H1776Q1819 1400 1839.5 1382.5Q1860 1365 1860 1334Q1860 1306 1847.0 1288.0Q1834 1270 1810 1261L1772 1247Q1741 1237 1730.5 1220.0Q1720 1203 1722 1168L1785 228Q1787 191 1797.5 176.5Q1808 162 1833 153L1872 139Q1894 131 1906.0 113.5Q1918 96 1918 70Q1918 40 1897.5 20.0Q1877 0 1834 0H1274Q1230 0 1209.5 18.0Q1189 36 1189 66Q1189 92 1200.0 110.5Q1211 129 1240 139L1279 153Q1309 163 1319.5 179.5Q1330 196 1328 229L1254 1222L1382 1234L981 145Q953 70 924.5 49.5Q896 29 856 29Q826 29 802.0 36.0Q778 43 757.0 69.0Q736 95 714 152L302 1195L426 1217L349 266Q345 218 370.0 192.5Q395 167 433 146L461 130Q478 121 487.0 106.5Q496 92 496 69Q496 38 476.0 19.0Q456 0 413 0H116Q73 0 53.0 18.0Q33 36 33 66Q33 97 49.0 113.0Q65 129 90 142L111 152Q143 167 166.0 193.5Q189 220 193 267L261 1121Q266 1180 255.0 1208.0Q244 1236 212 1247L174 1261Q148 1271 135.5 1288.5Q123 1306 123 1334Q123 1400 207 1400H593Q654 1400 690.5 1374.5Q727 1349 758 1271Z" transform="translate(0.00,0) scale(0.28000,-0.28000)"/></g>
  <line x1="332.0" y1="730" x2="692.0" y2="730" stroke="#f5f1ea" stroke-width="8"/>
  <circle cx="692.0" cy="730" r="20" fill="#c14a2b"/>
</svg>