<?xml version="1.0" encoding="UTF-8"?>
<svg xmlns="http://www.w3.org/2000/svg" viewBox="0 0 1200 400" width="1200" height="400">
  <rect width="1200" height="400" fill="#12100e"/>
  <g fill="#f5f1ea">
    <g transform="translate(333.84,235)"><path d="M984 380 883 347 1259 1308Q1278 1360 1304.5 1380.0Q1331 1400 1377 1400H1666Q1697 1400 1712.5 1388.0Q1728 1376 1728 1354Q1728 1335 1718.0 1322.5Q1708 1310 1685 1303L1634 1289Q1600 1280 1588.0 1262.5Q1576 1245 1579 1204L1654 181Q1656 147 1668.0 133.0Q1680 119 1711 111L1761 97Q1782 90 1791.5 78.0Q1801 66 1801 48Q1801 28 1786.0 14.0Q1771 0 1740 0H1258Q1227 0 1212.0 12.5Q1197 25 1197 46Q1197 64 1206.0 76.5Q1215 89 1240 97L1290 111Q1325 120 1337.5 135.0Q1350 150 1348 181L1265 1232L1358 1239L931 137Q913 88 894.0 74.0Q875 60 849 60Q829 60 813.5 65.5Q798 71 784.0 88.0Q770 105 756 142L322 1209L413 1241L325 211Q321 168 343.0 146.5Q365 125 403 108L452 91Q468 84 477.0 74.5Q486 65 486 47Q486 26 471.0 13.0Q456 0 425 0H107Q76 0 61.0 12.5Q46 25 46 46Q46 68 59.0 79.0Q72 90 93 99L133 112Q168 124 188.0 147.0Q208 170 211 212L294 1187Q298 1232 284.5 1256.0Q271 1280 236 1289L188 1301Q164 1309 153.5 1321.0Q143 1333 143 1354Q143 1400 206 1400H490Q534 1400 560.0 1382.5Q586 1365 607 1313Z" transform="translate(0.00,0) scale(0.06000,-0.06000)"/><path d="M104 46Q104 83 146 97L204 110Q228 117 241.0 131.0Q254 145 254 167V1233Q254 1255 241.0 1269.0Q228 1283 204 1290L146 1303Q104 1317 104 1354Q104 1376 118.5 1388.0Q133 1400 164 1400H696Q882 1400 1033.5 1345.5Q1185 1291 1294.5 1191.5Q1404 1092 1463.0 956.0Q1522 820 1522 657Q1522 467 1434.0 318.5Q1346 170 1181.5 85.0Q1017 0 787 0H164Q133 0 118.5 12.5Q104 25 104 46ZM758 100Q892 100 991.5 162.0Q1091 224 1146.0 349.0Q1201 474 1201 663Q1201 810 1163.5 927.5Q1126 1045 1055.5 1128.5Q985 1212 885.0 1256.0Q785 1300 660 1300H563V192Q563 144 590.5 122.0Q618 100 672 100Z" transform="translate(111.18,0) scale(0.06000,-0.06000)"/></g>
    <g transform="translate(540.90,235)"><path d="M539 35Q539 20 526.5 10.0Q514 0 488 0H146Q122 0 108.5 10.0Q95 20 95 35Q95 62 134 77L193 92Q240 107 255.0 125.0Q270 143 270 183V1113Q270 1142 262.5 1162.5Q255 1183 224 1219L136 1325Q122 1342 117.0 1351.5Q112 1361 112 1371Q112 1385 123.0 1392.5Q134 1400 151 1400H325Q350 1400 367.0 1391.0Q384 1382 402 1357L1244 270L1203 183V1217Q1203 1256 1188.0 1275.0Q1173 1294 1126 1308L1066 1323Q1027 1339 1027 1365Q1027 1381 1040.0 1390.5Q1053 1400 1078 1400H1420Q1445 1400 1458.0 1390.5Q1471 1381 1471 1365Q1471 1338 1432 1323L1373 1308Q1328 1294 1312.0 1276.0Q1296 1258 1296 1217V246Q1296 218 1301.5 199.0Q1307 180 1320 163L1382 83Q1397 64 1401.0 53.5Q1405 43 1405 32Q1405 18 1394.5 9.0Q1384 0 1363 0H1159Q1121 0 1121 32Q1121 47 1115.5 59.5Q1110 72 1083 107L291 1134L364 1190V183Q364 145 378.5 126.0Q393 107 441 92L501 77Q539 62 539 35Z" transform="translate(0.00,0) scale(0.06000,-0.06000)"/><path d="M586 959Q733 959 845.0 896.5Q957 834 1020.5 723.0Q1084 612 1084 467Q1084 326 1019.5 215.5Q955 105 842.0 41.0Q729 -23 579 -23Q432 -23 320.5 40.0Q209 103 145.0 214.0Q81 325 81 469Q81 612 145.5 722.0Q210 832 323.5 895.5Q437 959 586 959ZM656 62Q740 74 792.0 130.0Q844 186 861.5 282.0Q879 378 857 508Q836 637 786.0 723.0Q736 809 665.5 847.5Q595 886 509 873Q426 861 373.5 805.0Q321 749 303.5 654.0Q286 559 308 428Q330 299 379.5 213.0Q429 127 500.0 88.5Q571 50 656 62Z" transform="translate(93.18,0) scale(0.06000,-0.06000)"/><path d="M142 857 88 871Q63 878 53.5 886.5Q44 895 44 908Q44 923 55.0 931.0Q66 939 85 939H148Q175 939 191.0 947.5Q207 956 221 978L301 1124Q315 1148 329.5 1158.5Q344 1169 361 1169Q378 1169 387.5 1158.0Q397 1147 397 1127V247Q397 179 425.5 142.0Q454 105 505 105Q542 105 562.5 117.5Q583 130 594.5 146.0Q606 162 616.0 174.5Q626 187 642 188Q655 189 661.5 180.5Q668 172 668 154Q668 111 637.0 72.0Q606 33 551.5 8.0Q497 -17 427 -17Q317 -17 252.0 40.5Q187 98 187 213V800Q187 824 177.0 837.0Q167 850 142 857ZM303 860V939H617Q637 939 648.5 931.5Q660 924 660 909Q660 888 638.5 874.0Q617 860 572 860Z" transform="translate(163.14,0) scale(0.06000,-0.06000)"/><path d="M961 584Q961 539 934.0 514.5Q907 490 855 490H217V554H697Q746 554 746 597Q746 731 688.0 806.0Q630 881 534 881Q457 881 399.0 838.0Q341 795 308.5 715.5Q276 636 276 528Q276 329 371.5 226.5Q467 124 621 124Q720 124 793.0 168.5Q866 213 896 286Q908 304 916.5 309.5Q925 315 936 315Q950 315 956.0 303.5Q962 292 961 277Q954 194 901.0 125.5Q848 57 759.0 17.0Q670 -23 556 -23Q416 -23 308.5 36.0Q201 95 141.0 201.5Q81 308 81 452Q81 598 139.5 712.5Q198 827 305.5 893.5Q413 960 561 960Q684 960 773.5 912.0Q863 864 912.0 779.5Q961 695 961 584Z" transform="translate(206.76,0) scale(0.06000,-0.06000)"/><path d="M497 51Q571 51 614.0 90.0Q657 129 657 190Q657 228 639.5 259.5Q622 291 574.5 316.0Q527 341 439 364Q301 396 223.0 442.0Q145 488 113.0 547.5Q81 607 81 677Q81 805 172.0 882.0Q263 959 433 959Q495 959 536.0 948.0Q577 937 604.5 926.0Q632 915 651 915Q672 915 682.5 926.0Q693 937 703.0 948.5Q713 960 731 960Q743 960 753.0 952.0Q763 944 769 922L843 712Q852 685 848.5 666.5Q845 648 826 640Q807 634 793.5 641.0Q780 648 768 666Q724 750 672.5 797.5Q621 845 563.0 865.5Q505 886 443 886Q349 886 301.5 846.0Q254 806 254 739Q254 700 274.0 667.0Q294 634 347.0 606.5Q400 579 497 555Q621 525 693.0 483.0Q765 441 796.0 383.0Q827 325 827 245Q827 167 787.5 106.0Q748 45 675.5 10.5Q603 -24 506 -24Q445 -24 407.0 -11.0Q369 2 343.5 14.5Q318 27 295 27Q275 27 263.0 14.5Q251 2 240.5 -11.0Q230 -24 214 -24Q202 -24 194.0 -15.5Q186 -7 182 13L139 214Q132 248 135.5 265.0Q139 282 155 288Q173 295 186.5 286.0Q200 277 215 251Q272 144 345.5 97.5Q419 51 497 51Z" transform="translate(269.28,0) scale(0.06000,-0.06000)"/></g>
  </g>
  <circle cx="894.16" cy="223" r="10" fill="#c14a2b"/>
  <line x1="333.84" y1="270" x2="904.16" y2="270" stroke="#8a8275" stroke-width="1"/>
  <text x="333.84" y="295" font-family="monospace" font-size="15" fill="#8a8275">MARKDOWN EDITOR</text>
  <text x="904.16" y="295" font-family="monospace" font-size="15" fill="#c14a2b" text-anchor="end">v0.1</text>
</svg>