<?xml version="1.0" encoding="UTF-8"?>
<svg xmlns="http://www.w3.org/2000/svg" viewBox="0 0 1200 500" width="1200" height="500">
  <rect width="1200" height="500" fill="#f5f1ea"/>
  <rect x="400" y="150" width="6" height="200" rx="3" fill="#c14a2b"/>
  <circle cx="403" cy="138" r="6" fill="#c14a2b"/>
  <g transform="translate(445,285)" fill="#1a1714"><path d="M1064 483 921 461 1219 1267Q1247 1343 1284.0 1371.5Q1321 1400 1386 1400H1776Q1819 1400 1839.5 1382.5Q1860 1365 1860 1334Q1860 1306 1847.0 1288.0Q1834 1270 1810 1261L1772 1247Q1741 1237 1730.5 1220.0Q1720 1203 1722 1168L1785 228Q1787 191 1797.5 176.5Q1808 162 1833 153L1872 139Q1894 131 1906.0 113.5Q1918 96 1918 70Q1918 40 1897.5 20.0Q1877 0 1834 0H1274Q1230 0 1209.5 18.0Q1189 36 1189 66Q1189 92 1200.0 110.5Q1211 129 1240 139L1279 153Q1309 163 1319.5 179.5Q1330 196 1328 229L1254 1222L1382 1234L981 145Q953 70 924.5 49.5Q896 29 856 29Q826 29 802.0 36.0Q778 43 757.0 69.0Q736 95 714 152L302 1195L426 1217L349 266Q345 218 370.0 192.5Q395 167 433 146L461 130Q478 121 487.0 106.5Q496 92 496 69Q496 38 476.0 19.0Q456 0 413 0H116Q73 0 53.0 18.0Q33 36 33 66Q33 97 49.0 113.0Q65 129 90 142L111 152Q143 167 166.0 193.5Q189 220 193 267L261 1121Q266 1180 255.0 1208.0Q244 1236 212 1247L174 1261Q148 1271 135.5 1288.5Q123 1306 123 1334Q123 1400 207 1400H593Q654 1400 690.5 1374.5Q727 1349 758 1271Z" transform="translate(0.00,0) scale(0.07500,-0.07500)"/><path d="M88 66Q88 119 139 139L178 153Q204 163 216.5 178.0Q229 193 229 218V1182Q229 1207 216.5 1222.0Q204 1237 178 1247L139 1261Q88 1281 88 1334Q88 1365 108.5 1382.5Q129 1400 172 1400H792Q976 1400 1126.5 1345.0Q1277 1290 1385.5 1189.5Q1494 1089 1552.5 951.5Q1611 814 1611 647Q1611 460 1522.0 313.5Q1433 167 1271.0 83.5Q1109 0 888 0H172Q129 0 108.5 18.0Q88 36 88 66ZM831 140Q916 140 985.0 192.0Q1054 244 1094.5 357.0Q1135 470 1135 653Q1135 797 1108.5 909.5Q1082 1022 1030.5 1100.5Q979 1179 906.0 1219.5Q833 1260 740 1260H692V249Q692 192 721.0 166.0Q750 140 804 140Z" transform="translate(147.45,0) scale(0.07500,-0.07500)"/></g>
  <g transform="translate(727.62,250)" fill="#c14a2b"><path d="M537 29Q537 17 526.0 8.5Q515 0 493 0H146Q125 0 113.0 8.5Q101 17 101 29Q101 51 136 64L203 80Q249 94 264.0 110.0Q279 126 279 163V1128Q279 1155 271.0 1175.5Q263 1196 230 1233L141 1339Q128 1354 124.0 1362.0Q120 1370 120 1378Q120 1389 128.5 1394.5Q137 1400 152 1400H292Q314 1400 329.5 1392.0Q345 1384 362 1361L1243 239L1206 170V1237Q1206 1273 1191.5 1290.0Q1177 1307 1130 1320L1062 1336Q1027 1349 1027 1371Q1027 1384 1038.5 1392.0Q1050 1400 1071 1400H1419Q1441 1400 1452.0 1392.0Q1463 1384 1463 1371Q1463 1349 1429 1336L1362 1320Q1316 1307 1301.0 1291.0Q1286 1275 1286 1237V223Q1286 196 1291.5 179.5Q1297 163 1309 147L1370 69Q1383 53 1387.0 44.0Q1391 35 1391 25Q1391 14 1383.0 7.0Q1375 0 1356 0H1190Q1157 0 1157 28Q1157 43 1151.5 54.5Q1146 66 1120 98L300 1147L360 1196V163Q360 127 374.0 110.5Q388 94 436 80L504 64Q537 51 537 29Z" transform="translate(0.00,0) scale(0.04400,-0.04400)"/><path d="M578 952Q720 952 829.5 890.0Q939 828 1000.5 718.0Q1062 608 1062 464Q1062 324 999.5 214.0Q937 104 827.5 41.0Q718 -22 572 -22Q430 -22 321.0 40.5Q212 103 150.0 213.0Q88 323 88 466Q88 608 150.5 717.5Q213 827 323.0 889.5Q433 952 578 952ZM647 52Q740 65 798.5 123.0Q857 181 878.5 279.0Q900 377 879 507Q859 638 805.5 725.5Q752 813 675.0 852.5Q598 892 503 878Q411 865 352.0 807.0Q293 749 271.5 651.0Q250 553 271 423Q292 293 345.0 205.5Q398 118 475.5 78.5Q553 39 647 52Z" transform="translate(68.42,0) scale(0.04400,-0.04400)"/><path d="M151 862 93 875Q68 882 58.5 890.0Q49 898 49 909Q49 921 58.5 928.0Q68 935 84 935H149Q178 935 194.0 943.0Q210 951 221 972L284 1115Q294 1136 306.0 1145.5Q318 1155 334 1155Q348 1155 356.0 1146.0Q364 1137 364 1120V224Q364 157 393.5 120.5Q423 84 474 84Q511 84 531.5 95.0Q552 106 563.5 120.5Q575 135 584.0 146.0Q593 157 608 158Q619 159 624.5 151.5Q630 144 630 129Q630 95 602.5 62.0Q575 29 527.0 7.0Q479 -15 417 -15Q317 -15 257.0 38.5Q197 92 197 198V806Q197 829 186.5 842.0Q176 855 151 862ZM281 868V935H585Q603 935 612.5 928.5Q622 922 622 908Q622 891 604.0 879.5Q586 868 548 868Z" transform="translate(119.06,0) scale(0.04400,-0.04400)"/><path d="M940 580Q940 539 915.0 517.5Q890 496 841 496H194V552H717Q765 552 765 594Q765 729 701.0 808.0Q637 887 531 887Q447 887 383.0 840.5Q319 794 283.0 709.0Q247 624 247 512Q247 309 345.0 203.0Q443 97 600 97Q705 97 781.5 147.5Q858 198 885 276Q893 292 900.5 297.5Q908 303 918 303Q931 303 936.0 292.5Q941 282 941 270Q933 189 881.0 122.0Q829 55 743.5 16.5Q658 -22 550 -22Q412 -22 308.0 36.5Q204 95 146.0 201.5Q88 308 88 451Q88 594 145.0 707.5Q202 821 306.0 887.0Q410 953 553 953Q670 953 756.5 906.0Q843 859 891.5 774.5Q940 690 940 580Z" transform="translate(149.73,0) scale(0.04400,-0.04400)"/><path d="M490 42Q568 42 613.5 83.5Q659 125 659 191Q659 233 639.5 267.0Q620 301 569.0 328.0Q518 355 426 380Q297 412 222.5 457.0Q148 502 117.0 559.5Q86 617 86 683Q86 804 172.5 878.0Q259 952 419 952Q478 952 518.0 941.5Q558 931 585.5 920.0Q613 909 632 909Q652 909 661.5 920.0Q671 931 680.0 942.0Q689 953 706 953Q716 953 724.5 946.5Q733 940 738 921L816 705Q824 682 821.5 666.5Q819 651 802 644Q786 638 774.0 644.5Q762 651 752 666Q709 753 657.0 801.5Q605 850 546.0 870.0Q487 890 425 890Q326 890 275.5 846.5Q225 803 225 732Q225 690 246.5 654.5Q268 619 323.0 589.0Q378 559 478 534Q597 503 666.5 462.0Q736 421 766.5 365.5Q797 310 797 234Q797 160 760.0 101.5Q723 43 654.5 10.0Q586 -23 493 -23Q435 -23 398.0 -10.0Q361 3 336.0 15.5Q311 28 288 28Q269 28 258.5 15.5Q248 3 239.0 -10.0Q230 -23 215 -23Q206 -23 199.0 -16.0Q192 -9 189 7L144 213Q137 244 139.5 260.0Q142 276 156 280Q172 286 183.5 277.5Q195 269 208 245Q262 137 336.0 89.5Q410 42 490 42Z" transform="translate(194.92,0) scale(0.04400,-0.04400)"/></g>
  <text x="448" y="330" font-family="monospace" font-size="17" fill="#8a8275" letter-spacing="2">ESCRIBE · LEE · PREVISUALIZA</text>
</svg>